<svg xmlns="http://www.w3.org/2000/svg" width="32" height="32" viewBox="0 0 32 32" fill="none">
  <rect width="32" height="32" rx="8" fill="url(#nexusgo-grad)"/>
  <defs>
    <linearGradient id="nexusgo-grad" x1="0%" y1="0%" x2="100%" y2="100%">
      <stop offset="0%" stop-color="#10b981" />
      <stop offset="100%" stop-color="#047857" />
    </linearGradient>
  </defs>
  <g transform="translate(4, 4)">
    <path d="M14 18V6a2 2 0 0 0-2-2H4a2 2 0 0 0-2 2v11a1 1 0 0 0 1 1h2" stroke="#ffffff" stroke-width="2" stroke-linecap="round" stroke-linejoin="round"/>
    <path d="M15 18H9" stroke="#ffffff" stroke-width="2" stroke-linecap="round" stroke-linejoin="round"/>
    <path d="M19 18h2a1 1 0 0 0 1-1v-3.65a1 1 0 0 0-.22-.62l-3.24-4.05A1 1 0 0 0 17.76 8H14v10" stroke="#ffffff" stroke-width="2" stroke-linecap="round" stroke-linejoin="round"/>
    <circle cx="7" cy="18" r="2" stroke="#ffffff" stroke-width="2" fill="none"/>
    <circle cx="17" cy="18" r="2" stroke="#ffffff" stroke-width="2" fill="none"/>
  </g>
</svg>
